<svg id="レイヤー_1" data-name="レイヤー 1" xmlns="http://www.w3.org/2000/svg" viewBox="0 0 1920 1080"><title>howto_1</title><path d="M492.44,319.55l-24.5,43.5v32.7h-8.31v-32.5l-23.2-43.7h9.5l10.6,21.3c2.91,5.7,5.3,10.6,7.61,16.1h.3c2.1-5.1,4.7-10.3,7.7-16.2l11-21.2Z"/><path d="M547.14,368.05c0,20.3-13.41,28.9-25.51,28.9-14,0-24.8-10.5-24.8-28.1,0-18.6,11.6-28.9,25.5-28.9C537.23,340,547.14,351.35,547.14,368.05ZM522,346.45c-11.8,0-16.7,11.6-16.7,22.1,0,12.1,6.7,21.9,16.5,21.9s16.81-9.8,16.81-22.1C538.64,358.65,533.94,346.45,522,346.45Z"/><path d="M602.43,381.25c0,5.6.3,10.3.5,14.5h-7.5l-.4-8.6h-.3a19.76,19.76,0,0,1-17.4,9.8c-8.2,0-17.9-4.7-17.9-23.5v-32.2h8.3V372c0,10.6,3.1,18,12.2,18a14.43,14.43,0,0,0,14.2-14.8v-33.9h8.3Z"/><path d="M663.73,326.65h-22.5v69.1h-8.3v-69.1h-22.4v-7h53.2Z"/><path d="M714.43,381.25c0,5.6.3,10.3.5,14.5h-7.5l-.4-8.6h-.3a19.76,19.76,0,0,1-17.4,9.8c-8.2,0-17.9-4.7-17.9-23.5v-32.2h8.3V372c0,10.6,3.1,18,12.2,18a14.43,14.43,0,0,0,14.2-14.8v-33.9h8.3Z"/><path d="M739.33,350.05c3.4-6.3,9.6-10.1,18.1-10.1,12.9,0,22,11.1,22,27.9,0,19.8-12.1,29.1-23.4,29.1-7.9,0-13.7-3.2-17.6-10.2h-.3l-.5,9h-7.2c.2-3.6.4-9.1.4-13.5v-66.5h8.3v34.3Zm-.2,24.4c0,8.1,6.1,15.7,15.3,15.7,10.6,0,16.5-9.1,16.5-22,0-11.4-5.6-21.4-16.2-21.4-9.5,0-15.6,8.9-15.6,16.9Z"/><path d="M830.53,393.45c-3.1,1.5-8.8,3.4-17.1,3.4-15.9,0-25.4-11.2-25.4-27.5,0-17.1,9.6-29.4,24.3-29.4,16.8,0,21.1,15.4,21.1,24.9,0,1.9-.1,3.3-.2,4.6h-37.1c.1,15.1,8.7,20.8,18.5,20.8a34.44,34.44,0,0,0,14.3-2.8Zm-5.3-30.2c.1-7.4-3-17-13.7-17-10,0-14.4,9.5-15.2,17Z"/><path d="M957.73,368v6.4h-41.5V396c0,8-4.8,8.1-21.4,8.1a32.62,32.62,0,0,0-2.9-6.4c4,.1,7.9.2,10.7.2,6.2,0,6.5,0,6.5-2v-21.5h-41.6V368h41.6v-9.3l3.1.2a88.52,88.52,0,0,0,15.5-11.4h-41.4v-6.2h48.2l1.2-.4,5.3,3.3a2,2,0,0,1-1.5.9,114.61,114.61,0,0,1-23.3,17.6V368Zm-79.9-37.8v17h-6.6v-23.4h37.7V311l9,.6c-.1.7-.6,1.2-2,1.4v10.8h38.4v23.4h-6.8v-17Z"/><path d="M1058.13,369.85h-21.9a64,64,0,0,0,23.9,12.7,24.82,24.82,0,0,0-4.1,5.1,63.57,63.57,0,0,1-12.7-6v12.9c0,5.8-2.2,6.7-15.6,6.5a21,21,0,0,0-1.9-5.3c2.7.1,5.1.2,6.8.2,3.8,0,4.2,0,4.2-1.4V383h-21.3v21.3h-6.6V383h-19.1v18.5h-6.5v-20.2a87.8,87.8,0,0,1-14,7.6,18.71,18.71,0,0,0-4-4.9,75.21,75.21,0,0,0,22.9-14.1h-21v-5.6h26.4a53.68,53.68,0,0,0,4.2-5.9h-16.9v-27.5H1046v27.5h-39.2a2.26,2.26,0,0,1-2,.9c-1,1.6-2.1,3.3-3.3,5h56.6ZM992.23,330v-5.6h-24.5v-5.6h24.5v-7.4l8.5.5c-.1.7-.6,1.2-2,1.4v5.5H1026v-7.4l8.6.5c-.1.7-.6,1.2-2,1.4v5.5h25.2v5.6h-25.2V330H1026v-5.6h-27.3V330Zm-5.1,5.5v6.9h52.4v-6.9Zm0,11.3v7h52.4v-7Zm9.7,23.1a75.91,75.91,0,0,1-8.2,7.6h20.3v-7.6Zm18.7,7.6h21.7a49.38,49.38,0,0,1-8.1-7.6h-11.7c-.2.6-.7,1.1-1.9,1.3Z"/><path d="M1182.13,374.45h-39.8c7.1,13.4,21,21.1,40.9,23.9a29.17,29.17,0,0,0-4.3,6.1c-20.6-3.7-34.7-12.4-42.6-27.9-4.3,11.1-15.4,21.1-43,27.9a28.55,28.55,0,0,0-4-5.6c26.51-6.1,36.71-14.9,40.51-24.4h-40.11v-6.4h12v-25.4H1132v-10.1l8.8.5c-.1.7-.7,1.2-2,1.4v8.2h31.9v25.4h11.4Zm-67.7-36.3v-10.5h-23v-6.2h23v-10.1l8.6.5c-.1.7-.7,1.2-2,1.4v8.2h29.5v-10.1l8.6.5c-.1.8-.6,1.2-2,1.4v8.2h23.6v6.2h-23.6v10.5h-6.6v-10.5H1121v10.5Zm-6.2,29.9h23.3a49.8,49.8,0,0,0,.5-7.7v-11.7h-23.8Zm55.7-19.4h-25.1v11.7a65.07,65.07,0,0,1-.4,7.7h25.5Z"/><path d="M1211.13,323.45c-6.2,1.4-12.7,2.7-18.81,3.7a18.62,18.62,0,0,0-2.1-5.2c14-2.5,30-6.3,38.51-10.6l6.2,5.2c-.4.3-.6.3-2,.3a101.87,101.87,0,0,1-15.3,5v19.6h17.2v6.3h-17.2v6c4.2,3.8,14.5,14.3,17,17.1l-4.2,5.5c-2.4-3.4-8.3-10.2-12.8-15.3v43.1h-6.5v-46.4c-5,12.1-11.8,24.2-18.41,31.3a29.64,29.64,0,0,0-3.8-6.1c7.61-7.9,15.81-22.2,20.41-35.2h-19.11v-6.3h20.91Zm27.8-1.1h38.9v78.3h-6.9v-7h-25.4v7.8h-6.6Zm6.6,64.8h25.4v-58.3h-25.4Z"/><path d="M1313.83,347.45v17.3h14.3v34.9h-6.4v-3.9h-22v7.4h-6.1v-38.4h13.71v-17.3h-17.81v-6.4h17.81v-17.5c-5.3,1.3-10.71,2.5-15.81,3.4a18.07,18.07,0,0,0-2.2-5.2c12.61-2.6,27.31-6.5,35.41-10.4l5.7,5.6a2.43,2.43,0,0,1-1.1.3,2.92,2.92,0,0,1-.9-.2c-1.3.6-13.2,4.8-14.6,5v19h17.9v6.4Zm7.9,42.1V371h-22v18.6Zm60.7-32.5h-23.2V372h21.3v6.3h-21.3v25.9h-6.8v-25.9h-20.9V372h20.9v-14.9h-22.6v-6.4h35.5l-4.5-1.7a125,125,0,0,0,7.1-18.9l8,2.4c-.3.7-1,1-2.2,1a144.46,144.46,0,0,1-7.5,17.2h16.2Zm-2.2-33.9v6.2h-47.8v-6.2h19.8v-11.9l8.8.5c-.1.8-.7,1.3-2,1.4v10Zm-36.7,7.4a63.09,63.09,0,0,1,5.4,18.2l-6,1.8a62.5,62.5,0,0,0-5.1-18.3Z"/><path d="M1473,373.85h9.4v6.5h-93.11v-6.5h10.3v-50.2h21.91v-12.5l8.3.6c-.1.6-.7,1.1-2,1.3v10.6h15.9v-12.6l8.4.6c-.1.7-.6,1.1-1.9,1.3v10.7H1473Zm-45.9,12.9a3.37,3.37,0,0,1-2,.7c-6.5,5.8-19,12.9-29.41,17.1a41.21,41.21,0,0,0-5.2-5.1c10.51-4,23.11-11,29.31-16.8Zm-5.6-56.8h-15.41v18.8h15.41Zm-15.41,25.1v18.8h15.41v-18.8Zm37.61-25.1h-15.9v18.8h15.9Zm0,43.9v-18.8h-15.9v18.8Zm31.3,30.4a245,245,0,0,0-28.9-17.2l4.9-4.6c11,5.3,22.9,12,30.1,17Zm-8.7-74.3h-16.1v18.8h16.1Zm-16.1,25.1v18.8h16.1v-18.8Z"/><path d="M816.18,504.55a2.59,2.59,0,0,1-2.5,1.6c-3.6,31.1-14,58.2-30.6,58.2-8.4,0-16-8.4-16-24.2,0-24,18.7-44.1,45-44.1,28.9,0,41.4,18.3,41.4,37.8,0,23.8-13.8,35.3-38,40.9a39.44,39.44,0,0,0-4.2-6.1c23-4.4,34.8-15.6,34.8-34.5,0-16.5-10.6-31.5-34-31.5a28.32,28.32,0,0,0-3,.2Zm-9.6-1.3a36.81,36.81,0,0,0-32.7,36.7c0,10.7,4.6,17.4,9.4,17.4C795.38,557.35,804.08,530.65,806.58,503.25Z"/><path d="M877.48,521.65a118.12,118.12,0,0,1-12.2,16.7,49.56,49.56,0,0,0-3.5-6.3c9.6-10.4,19.2-27.7,25-45l8,2.7c-.4.7-1.1,1-2.3.9a181.31,181.31,0,0,1-9.2,20.7l2.7.7c-.2.6-.7,1.1-2,1.2v66.3h-6.5Zm76.1,20.6h-26.9c-.7,6.6-2.3,13-6,18.8,9.6,6.4,22.4,10.3,37.7,12a28,28,0,0,0-4.3,6.3c-15.1-2.1-27.7-6.4-37.4-13.2-5.2,5.4-12.9,10-24.3,13.4a25.82,25.82,0,0,0-4.1-5.6c11.1-2.9,18.4-7,23.2-11.9a48.42,48.42,0,0,1-11.6-15.2l6.1-2a39.89,39.89,0,0,0,9.5,12.2,34.16,34.16,0,0,0,4.6-14.8h-24.9v-27.7h25.4v-10.5H892v-6.2h28.6v-10.7l8.6.5c-.1.7-.6,1.2-2,1.4v8.8h29.9v6.2h-29.9v10.5h26.4Zm-52.2-5.8h19.1c.1-1.7.1-3.3.1-5v-11.2h-19.2Zm45.7-16.2h-19.9v11.2c0,1.7,0,3.3-.1,5h20Z"/><path d="M981,499.85c-.2.9-1.3,1.5-2.7,1.6a164.47,164.47,0,0,0-1.9,24.9c0,3.7.2,7.3.4,10.5,1.2,17,8.1,27.3,15.8,27.2,4,0,9.2-10.2,12.8-21.4a34.85,34.85,0,0,0,5.8,4.3c-4.6,13.5-10.4,24.5-18.7,24.7-12.7.2-21.5-15.2-22.9-34.4-.3-3.8-.4-8-.4-12.5a238.52,238.52,0,0,1,1.5-26.9Zm66.3,46.5c-2.8-17.5-11.7-30.1-25.2-37.6l4.4-5.4c14.6,7.8,25.31,22.2,28.2,40.7Z"/><path d="M1155.68,510.55h-51.5c-.4,5.6-.9,11.5-1.7,17.4h35.7l1.5-.2,4,.7a13,13,0,0,1-.4,2.1c-2.1,30.1-4.1,41.3-8.1,45.3-2.7,2.9-5.4,3.4-11.7,3.4-3.6,0-8.6-.2-13.6-.5a16.07,16.07,0,0,0-2.4-6.6c7.4.7,14.6.7,17.1.7s3.7-.1,4.8-1.1c3.1-2.8,5.1-12.9,6.9-37.4h-34.9c-3.4,17.8-11.3,35.2-32.3,45.2a20.3,20.3,0,0,0-4.8-5.4c28.3-12.8,31.4-39.8,32.6-63.6h-31.7v-6.5h41.4v-18l8.9.6c-.1.7-.7,1.2-2,1.4v16h42.2Z"/></svg>