<svg id="レイヤー_1" data-name="レイヤー 1" xmlns="http://www.w3.org/2000/svg" viewBox="0 0 1920 1080"><title>howto_1</title><path d="M546.62,350.72l-22,39.15V419.3H517.1V390.05l-20.88-39.33h8.55l9.54,19.17c2.61,5.13,4.77,9.54,6.84,14.49h.27c1.89-4.59,4.23-9.27,6.93-14.58l9.9-19.08Z"/><path d="M595.85,394.37c0,18.27-12.06,26-23,26-12.6,0-22.32-9.45-22.32-25.29,0-16.74,10.44-26,22.95-26C586.94,369.08,595.85,379.34,595.85,394.37Zm-22.59-19.44c-10.62,0-15,10.44-15,19.89,0,10.89,6,19.71,14.85,19.71s15.12-8.82,15.12-19.89C588.2,385.91,584,374.93,573.26,374.93Z"/><path d="M645.62,406.25c0,5,.27,9.27.45,13.05h-6.75l-.36-7.74h-.27A17.78,17.78,0,0,1,623,420.38c-7.38,0-16.11-4.23-16.11-21.15v-29h7.47v27.63c0,9.54,2.79,16.2,11,16.2a13,13,0,0,0,12.78-13.32V370.25h7.47Z"/><path d="M662.36,361.34l7.38-2.52v11.43h12.69v5.85H669.74v28.35c0,6.21,1.89,9.63,6.66,9.63a14.6,14.6,0,0,0,5-.72l.45,5.76a18.86,18.86,0,0,1-7.29,1.17c-11.88,0-12.24-10.8-12.24-16V376.1H654.8v-5.85h7.56Z"/><path d="M730.66,406.25c0,5,.27,9.27.45,13.05h-6.75l-.36-7.74h-.27a17.77,17.77,0,0,1-15.65,8.82c-7.38,0-16.11-4.23-16.11-21.15v-29h7.47v27.63c0,9.54,2.79,16.2,11,16.2a13,13,0,0,0,12.77-13.32V370.25h7.47Z"/><path d="M753.07,378.17c3.06-5.67,8.64-9.09,16.29-9.09,11.61,0,19.8,10,19.8,25.11,0,17.82-10.89,26.19-21.06,26.19-7.11,0-12.33-2.88-15.84-9.18H752l-.45,8.1h-6.48c.19-3.24.37-8.19.37-12.15V347.3h7.47v30.87Zm-.17,22c0,7.29,5.48,14.13,13.76,14.13,9.54,0,14.85-8.19,14.85-19.8,0-10.26-5-19.26-14.58-19.26-8.55,0-14,8-14,15.21Z"/><path d="M835.15,417.23a35.58,35.58,0,0,1-15.39,3.06c-14.31,0-22.86-10.08-22.86-24.75,0-15.39,8.64-26.46,21.87-26.46,15.12,0,19,13.86,19,22.41,0,1.71-.09,3-.18,4.14H804.19c.09,13.59,7.83,18.72,16.65,18.72a31,31,0,0,0,12.87-2.52Zm-4.77-27.18c.09-6.66-2.7-15.3-12.33-15.3-9,0-13,8.55-13.68,15.3Z"/><path d="M949.63,394.28V400H912.28v19.44c0,7.2-4.32,7.29-19.26,7.29a29.36,29.36,0,0,0-2.61-5.76c3.6.09,7.11.18,9.63.18,5.58,0,5.85,0,5.85-1.8V400H868.45v-5.76h37.44v-8.37l2.79.18a79.67,79.67,0,0,0,14-10.26H885.37v-5.58h43.38l1.08-.36,4.77,3a1.76,1.76,0,0,1-1.35.81,103.15,103.15,0,0,1-21,15.84v4.77Zm-71.91-34v15.3h-5.94V354.5h33.93V343l8.1.54c-.09.63-.54,1.08-1.8,1.26v9.72h34.56v21.06h-6.12v-15.3Z"/><path d="M1040,396h-19.71a57.6,57.6,0,0,0,21.51,11.43,22.33,22.33,0,0,0-3.69,4.59,57.21,57.21,0,0,1-11.43-5.4v11.61c0,5.22-2,6-14,5.85a18.94,18.94,0,0,0-1.71-4.77c2.43.09,4.59.18,6.12.18,3.42,0,3.78,0,3.78-1.26V407.78h-19.17V427h-5.94V407.78H978.52v16.65h-5.85V406.25a79,79,0,0,1-12.6,6.84,16.84,16.84,0,0,0-3.6-4.41A67.69,67.69,0,0,0,977.08,396h-18.9v-5h23.76a48.31,48.31,0,0,0,3.78-5.31H970.51V360.89h58.59v24.75H993.82a2,2,0,0,1-1.8.81c-.9,1.44-1.89,3-3,4.5H1040Zm-59.31-35.91v-5h-22v-5h22v-6.66l7.65.45c-.09.63-.54,1.08-1.8,1.26V350h24.57v-6.66l7.74.45c-.09.63-.54,1.08-1.8,1.26V350h22.68v5H1017v5h-5.94v-5H986.53v5ZM976.09,365v6.21h47.16V365Zm0,10.17v6.3h47.16v-6.3ZM984.82,396a68.32,68.32,0,0,1-7.38,6.84h18.27V396Zm16.83,6.84h19.53a44.45,44.45,0,0,1-7.29-6.84h-10.53c-.18.54-.63,1-1.71,1.17Z"/><path d="M1151.59,400.13h-35.82c6.39,12.06,18.9,19,36.81,21.51a26.25,26.25,0,0,0-3.87,5.49c-18.54-3.33-31.23-11.16-38.34-25.11-3.87,10-13.86,19-38.7,25.11a26.07,26.07,0,0,0-3.6-5c23.85-5.49,33-13.41,36.45-22h-36.09v-5.76h10.8V371.51h27.27v-9.09l7.92.45c-.09.63-.63,1.08-1.8,1.26v7.38h28.71v22.86h10.26Zm-60.93-32.67V358H1070v-5.58h20.7v-9.09l7.74.45c-.09.63-.63,1.08-1.8,1.26v7.38h26.55v-9.09l7.74.45c-.09.72-.54,1.08-1.8,1.26v7.38h21.24V358h-21.24v9.45h-5.94V358H1096.6v9.45Zm-5.58,26.91h21a44.82,44.82,0,0,0,.45-6.93V376.91h-21.42Zm50.13-17.46h-22.59v10.53a58.56,58.56,0,0,1-.36,6.93h23Z"/><path d="M1177.69,354.23c-5.58,1.26-11.43,2.43-16.92,3.33a17,17,0,0,0-1.89-4.68c12.6-2.25,27-5.67,34.65-9.54l5.58,4.68c-.36.27-.54.27-1.8.27a91.68,91.68,0,0,1-13.77,4.5v17.64H1199v5.67h-15.48v5.4c3.78,3.42,13,12.87,15.3,15.39l-3.78,4.95c-2.16-3.06-7.47-9.18-11.52-13.77v38.79h-5.85V385.1c-4.5,10.89-10.62,21.78-16.56,28.17a26.68,26.68,0,0,0-3.42-5.49c6.84-7.11,14.22-20,18.36-31.68h-17.19v-5.67h18.81Zm25-1h35v70.47h-6.21v-6.3h-22.86v7h-5.94Zm5.94,58.32h22.86V359.09h-22.86Z"/><path d="M1270.12,375.83V391.4H1283v31.41h-5.76V419.3h-19.8V426h-5.49V391.4h12.33V375.83h-16v-5.76h16V354.32c-4.77,1.17-9.63,2.25-14.22,3.06a16.26,16.26,0,0,0-2-4.68c11.34-2.34,24.57-5.85,31.86-9.36l5.13,5a2.19,2.19,0,0,1-1,.27,2.63,2.63,0,0,1-.81-.18c-1.17.54-11.88,4.32-13.14,4.5v17.1h16.11v5.76Zm7.11,37.89V397h-19.8v16.74Zm54.63-29.25H1311v13.41h19.17v5.67H1311v23.31h-6.12V403.55h-18.81v-5.67h18.81V384.47h-20.34v-5.76h32l-4-1.53a112.49,112.49,0,0,0,6.39-17l7.2,2.16c-.27.63-.9.9-2,.9a130,130,0,0,1-6.75,15.48h14.58Zm-2-30.51v5.58h-43V354h17.82V343.25l7.92.45c-.09.72-.63,1.17-1.8,1.26v9Zm-33,6.66a56.78,56.78,0,0,1,4.86,16.38l-5.4,1.62a56.25,56.25,0,0,0-4.59-16.47Z"/><path d="M1413.4,399.59h8.46v5.85h-83.79v-5.85h9.27V354.41h19.71V343.16l7.47.54c-.09.54-.63,1-1.8,1.17v9.54H1387V343.07l7.56.54c-.09.63-.54,1-1.71,1.17v9.63h20.52Zm-41.31,11.61a3,3,0,0,1-1.8.63c-5.85,5.22-17.1,11.61-26.46,15.39a37.7,37.7,0,0,0-4.68-4.59c9.45-3.6,20.79-9.9,26.37-15.12Zm-5-51.12h-13.86V377h13.86Zm-13.86,22.59v16.92h13.86V382.67ZM1387,360.08h-14.31V377H1387Zm0,39.51V382.67h-14.31v16.92ZM1415.2,427a220.47,220.47,0,0,0-26-15.48l4.41-4.14a222,222,0,0,1,27.09,15.3Zm-7.83-66.87h-14.49V377h14.49Zm-14.49,22.59v16.92h14.49V382.67Z"/><path d="M840.6,509.72a2.33,2.33,0,0,1-2.25,1.44c-3.24,28-12.6,52.38-27.54,52.38-7.56,0-14.4-7.56-14.4-21.78,0-21.6,16.83-39.69,40.5-39.69,26,0,37.26,16.47,37.26,34,0,21.42-12.42,31.77-34.2,36.81a35.49,35.49,0,0,0-3.78-5.49c20.7-4,31.32-14,31.32-31,0-14.85-9.54-28.35-30.6-28.35a25.49,25.49,0,0,0-2.7.18ZM832,508.55a33.13,33.13,0,0,0-29.43,33c0,9.63,4.14,15.66,8.46,15.66C821.88,557.24,829.71,533.21,832,508.55Z"/><path d="M895.77,525.11a106.31,106.31,0,0,1-11,15,44.6,44.6,0,0,0-3.15-5.67c8.64-9.36,17.28-24.93,22.5-40.5l7.2,2.43c-.36.63-1,.9-2.07.81A163.18,163.18,0,0,1,901,515.84l2.43.63c-.18.54-.63,1-1.8,1.08v59.67h-5.85Zm68.49,18.54H940.05c-.63,5.94-2.07,11.7-5.4,16.92,8.64,5.76,20.16,9.27,33.93,10.8a25.23,25.23,0,0,0-3.87,5.67c-13.59-1.89-24.93-5.76-33.66-11.88-4.68,4.86-11.61,9-21.87,12.06a23.24,23.24,0,0,0-3.69-5c10-2.61,16.56-6.3,20.88-10.71a43.58,43.58,0,0,1-10.44-13.68l5.49-1.8A35.9,35.9,0,0,0,930,557a30.75,30.75,0,0,0,4.14-13.32H911.7V518.72h22.86v-9.45H908.82v-5.58h25.74v-9.63l7.74.45c-.09.63-.54,1.08-1.8,1.26v7.92h26.91v5.58H940.5v9.45h23.76Zm-47-5.22h17.19c.09-1.53.09-3,.09-4.5V523.85H917.28Zm41.13-14.58H940.5v10.08c0,1.53,0,3-.09,4.5h18Z"/><path d="M988.92,505.49c-.18.81-1.17,1.35-2.43,1.44a148,148,0,0,0-1.71,22.41c0,3.33.18,6.57.36,9.45,1.08,15.3,7.29,24.57,14.22,24.48,3.6,0,8.28-9.18,11.52-19.26a31.36,31.36,0,0,0,5.22,3.87c-4.14,12.15-9.36,22-16.83,22.23-11.43.18-19.35-13.68-20.61-31-.27-3.42-.36-7.2-.36-11.25a214.67,214.67,0,0,1,1.35-24.21Zm59.67,41.85c-2.52-15.75-10.53-27.09-22.68-33.84l4-4.86c13.14,7,22.77,20,25.38,36.63Z"/><path d="M1146.15,515.12H1099.8c-.36,5-.81,10.35-1.53,15.66h32.13l1.35-.18,3.6.63a11.73,11.73,0,0,1-.36,1.89c-1.89,27.09-3.69,37.17-7.29,40.77-2.43,2.61-4.86,3.06-10.53,3.06-3.24,0-7.74-.18-12.24-.45a14.46,14.46,0,0,0-2.16-5.94c6.66.63,13.14.63,15.39.63s3.33-.09,4.32-1c2.79-2.52,4.59-11.61,6.21-33.66h-31.41c-3.06,16-10.17,31.68-29.07,40.68a18.27,18.27,0,0,0-4.32-4.86c25.47-11.52,28.26-35.82,29.34-57.24H1064.7v-5.85H1102v-16.2l8,.54c-.09.63-.63,1.08-1.8,1.26v14.4h38Z"/></svg>